<svg xmlns="http://www.w3.org/2000/svg" width="78.38" height="41.673" viewBox="0 0 78.38 41.673"><defs><style>.a{fill:#fff;}</style></defs><g transform="translate(651.425 -908.645)"><path class="a" d="M-640.906,947.962a12.29,12.29,0,0,0-.014-1.675c-.126-.85.294-1.2,1.01-1.521,1.71-.766,3.361-1.662,5.072-2.426a1.243,1.243,0,0,0,.816-1.36q-.029-14.094-.013-28.188V911.9a1.621,1.621,0,0,0-.392.122c-2.477,1.912-4.959,3.818-7.411,5.762a1.332,1.332,0,0,0-.38.932q-.041,5.044.005,10.088a1.469,1.469,0,0,0,.5.95c.555.481,1.19.868,1.793,1.293l-.065.179h-2.159v1.4h2.27c-.857.65-1.86,1.062-2.234,1.8-.363.712-.079,1.753-.079,2.767l3.506-2.125.226.188a3.3,3.3,0,0,1-.609.9c-.632.468-1.332.846-2,1.259-1.348.828-1.408.979-1.01,2.7l3.395-2.03.235.24a3.145,3.145,0,0,1-.588.836,15.729,15.729,0,0,1-2.253,1.42c-.891.436-1.024,1.066-.76,2.01l3.384-2.062.246.2a3.44,3.44,0,0,1-.653.954c-.827.594-1.725,1.089-2.575,1.653-.229.152-.557.41-.554.617C-642.182,945.338-642.692,946.9-640.906,947.962Zm-4.578-16.739-.066-.21a13.266,13.266,0,0,1,1.279-.882,1.847,1.847,0,0,0,1.013-1.911c-.059-3.13,0-6.262-.049-9.393a1.784,1.784,0,0,0-.579-1.206c-1.914-1.56-3.878-3.06-5.831-4.573-.523-.406-1.066-.786-1.708-1.257,0,9.98-.006,19.769.029,29.557a1.307,1.307,0,0,0,.658.9c1.752.9,3.524,1.776,5.322,2.583a1.186,1.186,0,0,1,.816,1.359c-.049.561-.01,1.129-.01,1.758,1.682-.914,1.337-2.357,1.3-3.667a1.365,1.365,0,0,0-.518-.929c-.825-.6-1.737-1.073-2.565-1.665a3.638,3.638,0,0,1-.678-.942l.253-.217,3.391,2.056a1.489,1.489,0,0,0-.872-2.069,14.119,14.119,0,0,1-2.164-1.374c-.24-.179-.32-.573-.473-.869l.222-.135,3.3,1.978a2.073,2.073,0,0,0-1.262-2.883,8.4,8.4,0,0,1-1.759-1.088c-.249-.192-.351-.576-.519-.872l.24-.152,3.43,2.05a18.869,18.869,0,0,1,.014-1.972,1.349,1.349,0,0,0-.822-1.495,16.668,16.668,0,0,1-1.474-.985l.092-.216h2.112v-1.285Zm59.091,7.863c2.108,4.4,8.691,4.842,11.763.873a6.656,6.656,0,0,0-2.219-10.344c-.554-.288-1.142-.508-1.7-.785a35.839,35.839,0,0,1-3.59-1.847,4.272,4.272,0,0,1-1.756-4.706,4.554,4.554,0,0,1,3.512-3.753,4.255,4.255,0,0,1,4.714,1.685c.265.331.483.7.77,1.116l.914-.571a4.239,4.239,0,0,0-.2-.427,6.28,6.28,0,0,0-8.058-2.374,7.018,7.018,0,0,0-3.937,7.932,5.534,5.534,0,0,0,3,3.611c1.471.8,3.028,1.45,4.51,2.235a5.379,5.379,0,0,1,2.28,7.646,4.32,4.32,0,0,1-4.836,2.221,5.666,5.666,0,0,1-3.531-2.35c-.183-.257-.373-.509-.591-.8Zm-.672-21.031c-1.08-.355-1.509.01-1.851.882-1.6,4.072-3.267,8.117-4.915,12.17-.863,2.122-1.736,4.24-2.681,6.545-.226-.513-.377-.835-.511-1.164q-3.366-8.273-6.726-16.548c-.895-2.207-.887-2.211-3.262-1.982a1.361,1.361,0,0,0-.207.089l10.13,24.572Zm-22.718,23.939V917.976h-2.544v24.018Zm-13.007,8.324V908.671c-.969-.171-.682.535-.683.938q-.019,19.782-.01,39.563c0,.2-.063.435.024.583C-623.348,949.943-623.114,950.057-622.79,950.318Z"/><path class="a" d="M-603.879,961.149c-1.786-1.058-1.276-2.625-1.293-4.021,0-.206.325-.465.554-.616.85-.564,1.748-1.059,2.575-1.653a3.439,3.439,0,0,0,.653-.954l-.246-.2-3.384,2.062c-.263-.944-.131-1.574.76-2.01a15.735,15.735,0,0,0,2.253-1.42,3.145,3.145,0,0,0,.588-.836l-.235-.24-3.395,2.03c-.4-1.723-.338-1.874,1.01-2.7.673-.413,1.372-.791,2-1.259a3.3,3.3,0,0,0,.609-.9l-.226-.188-3.506,2.125c0-1.014-.284-2.056.079-2.767.374-.733,1.378-1.145,2.234-1.8h-2.27v-1.4h2.159l.065-.179c-.6-.425-1.238-.813-1.793-1.293a1.469,1.469,0,0,1-.5-.95q-.054-5.043-.005-10.088a1.332,1.332,0,0,1,.38-.932c2.451-1.944,4.934-3.85,7.411-5.762a1.625,1.625,0,0,1,.392-.122v.894q0,14.094.013,28.188a1.243,1.243,0,0,1-.816,1.36c-1.711.764-3.362,1.661-5.072,2.426-.716.321-1.136.671-1.01,1.521A12.279,12.279,0,0,1-603.879,961.149Z" transform="translate(-37.027 -13.187)"/><path class="a" d="M-645.484,943.982h2.126v1.285h-2.112l-.092.217a16.681,16.681,0,0,0,1.474.985,1.349,1.349,0,0,1,.822,1.495,18.87,18.87,0,0,0-.014,1.972l-3.43-2.05-.24.151c.168.3.27.681.519.873A8.4,8.4,0,0,0-644.672,950a2.073,2.073,0,0,1,1.262,2.883l-3.3-1.979-.222.135c.153.3.233.69.473.869a14.115,14.115,0,0,0,2.164,1.374,1.489,1.489,0,0,1,.872,2.069l-3.391-2.056-.253.217a3.638,3.638,0,0,0,.678.942c.829.592,1.74,1.069,2.565,1.665a1.365,1.365,0,0,1,.518.929c.034,1.31.378,2.753-1.3,3.667,0-.629-.039-1.2.01-1.758a1.186,1.186,0,0,0-.816-1.359c-1.8-.808-3.57-1.679-5.322-2.583a1.307,1.307,0,0,1-.658-.9c-.035-9.788-.029-19.577-.029-29.557.642.471,1.185.852,1.708,1.257,1.953,1.513,3.916,3.012,5.831,4.573a1.783,1.783,0,0,1,.579,1.206c.048,3.13-.01,6.263.049,9.393a1.847,1.847,0,0,1-1.013,1.911,13.276,13.276,0,0,0-1.279.882Z" transform="translate(0 -12.758)"/><path class="a" d="M-322.81,974.391l1.038-.643c.217.3.408.547.591.8a5.666,5.666,0,0,0,3.531,2.35,4.319,4.319,0,0,0,4.836-2.221,5.379,5.379,0,0,0-2.28-7.646c-1.482-.785-3.039-1.432-4.51-2.235a5.534,5.534,0,0,1-3-3.611,7.018,7.018,0,0,1,3.937-7.932,6.28,6.28,0,0,1,8.058,2.374,4.231,4.231,0,0,1,.2.427l-.914.572c-.287-.419-.505-.786-.77-1.117a4.255,4.255,0,0,0-4.714-1.685,4.554,4.554,0,0,0-3.512,3.753,4.272,4.272,0,0,0,1.756,4.706,35.827,35.827,0,0,0,3.59,1.847c.559.278,1.148.5,1.7.785a6.656,6.656,0,0,1,2.219,10.344C-314.119,979.233-320.7,978.787-322.81,974.391Z" transform="translate(-263.583 -35.305)"/><path class="a" d="M-407.884,955.41l-10.022,24.565-10.13-24.572a1.344,1.344,0,0,1,.207-.089c2.375-.229,2.367-.225,3.262,1.982q3.356,8.277,6.726,16.548c.134.329.285.651.511,1.164.944-2.3,1.818-4.423,2.681-6.545,1.648-4.053,3.317-8.1,4.915-12.17C-409.393,955.421-408.964,955.056-407.884,955.41Z" transform="translate(-179.181 -37.355)"/><path class="a" d="M-451.315,979.813h-2.544V955.795h2.544Z" transform="translate(-158.468 -37.819)"/><path class="a" d="M-509.656,950.318c-.324-.261-.558-.375-.669-.563-.087-.148-.024-.386-.024-.583q0-19.782.01-39.563c0-.4-.286-1.108.683-.938Z" transform="translate(-113.134)"/></g></svg>